<?xml version="1.0" encoding="utf-8"?>
<!-- Generator: Adobe Illustrator 22.0.1, SVG Export Plug-In . SVG Version: 6.00 Build 0)  -->
<svg version="1.1" id="Ebene_1" xmlns="http://www.w3.org/2000/svg" xmlns:xlink="http://www.w3.org/1999/xlink" x="0px" y="0px"
	 viewBox="0 0 45.4 45.4" style="enable-background:new 0 0 45.4 45.4;" xml:space="preserve">
<style type="text/css">
	.st0{fill:#F49700;}
	.st1{fill:#F22800;}
</style>
<g>
	<path class="st0" d="M33.2,31c-0.6,0.2-1.1,0.2-1.7,0.2c-5,0-12.5-17.6-12.5-23.5c0-2.2,0.5-2.9,1.2-3.5c-6.2,0.7-13.6,3-16,5.9
		c-0.5,0.7-0.8,1.9-0.8,3.3c0,9.2,9.8,30,16.7,30C23.4,43.4,28.8,38.1,33.2,31"/>
	<path class="st0" d="M30,3.7c6.4,0,12.8,1,12.8,4.6c0,7.3-4.6,16.2-7,16.2c-4.2,0-9.5-11.7-9.5-17.6C26.3,4.2,27.3,3.7,30,3.7"/>
</g>
<circle class="st1" cx="31.2" cy="31.5" r="9.6"/>
</svg>
